<?xml version="1.0" encoding="UTF-8"?><svg id="Layer_2" xmlns="http://www.w3.org/2000/svg" viewBox="0 0 544.51 501.82"><defs><style>.cls-1{fill:#fff;}</style></defs><g id="Layer_1-2"><path class="cls-1" d="m541.59,261.05l-17.51-17.51,15.05-15.05c2.71-2.71,3.63-6.73,2.38-10.35l-41.79-120.45c-1.19-3.43-4.14-5.94-7.71-6.57l-32.49-5.73,3.81-32.41c.5-4.23-1.74-8.31-5.57-10.17L376.63,3.46c-1.23-.6-2.56-.93-3.93-.99L316.16.01c-3.07-.15-6.07,1.17-8.07,3.53l-26.29,31.07h-19.1l-26.29-31.07c-2-2.36-4.96-3.67-8.07-3.53l-56.54,2.46c-1.36.06-2.7.4-3.93.99l-81.12,39.33c-3.83,1.86-6.07,5.94-5.57,10.17l3.81,32.41-32.49,5.73c-3.57.63-6.52,3.14-7.71,6.57L3.01,218.13c-1.26,3.62-.33,7.64,2.38,10.35l15.05,15.05-17.51,17.51c-3.02,3.02-3.79,7.63-1.91,11.47l28.27,57.77c.92,1.88,2.4,3.42,4.24,4.41l36.93,19.89-12.16,8.63c-2.31,1.64-3.82,4.18-4.15,7s.55,5.64,2.43,7.76l54.08,61.46c.79.89,1.73,1.64,2.78,2.2l24.86,13.35,30.75,42.69c1.88,2.61,4.9,4.15,8.11,4.15h49.17c3.51,0,6.77-1.84,8.58-4.85l28.4-47.34h17.9l28.4,47.34c1.81,3.01,5.06,4.85,8.58,4.85h49.16c3.21,0,6.23-1.55,8.11-4.15l30.75-42.69,24.86-13.35c1.05-.56,1.99-1.31,2.78-2.2l54.08-61.46c1.87-2.13,2.75-4.95,2.43-7.76s-1.83-5.36-4.15-7l-12.16-8.63,36.93-19.88c1.84-.99,3.32-2.53,4.24-4.41l28.27-57.77c1.88-3.84,1.11-8.45-1.91-11.47ZM203.68,21.1l20.23-.88-19.62,98.14-85.59-27.91L203.68,21.1Zm-39.38,6.32l-60.2,49.13-2.22-18.86,62.42-30.27Zm-70.83,99.83l37.52,164.2-85.96-51.81,48.44-112.39Zm-31.7-17.47l18.89-3.33-50.91,118.11-5.79-5.79,37.81-108.99Zm-15.93,208.82l-23.72-48.47,13.08-13.07,93.37,56.28-39.91,28.32-42.82-23.06Zm89.41,112.04l-10.77-5.78-45.56-51.77,57.45-40.77-1.12,98.32Zm-25.53-322.08l89.52,29.19-50.46,141.76-39.06-170.95Zm46.68,221.56l41.44,24.98-42.41,60.12.97-85.1Zm64.26,151.7h-38.38l-18.25-25.34,73.68-3.06-17.04,28.4Zm25.16-48.76l-80.88,3.36,47.52-67.36,33.36,42.63v21.38Zm0-53.83l-21.32-27.24,21.32-30.23v57.47Zm0-92.16l-36.43,51.64-49.78-30,57.45-161.4,28.76,18.16v121.6Zm0-145.26l-22.93-14.48,17.6-88.01,5.34,6.31v96.19Zm32.86,287.81h-12.86v-13.84h12.86v13.84Zm0-33.84h-12.86v-90.62h12.86v90.62Zm0-110.62h-12.86v-115.2h12.86v115.2Zm0-135.2h-12.86V54.61h12.86v95.34Zm204.05-40.17l37.81,108.99-5.79,5.79-50.91-118.11,18.89,3.33Zm16.74,129.86l-85.96,51.81,37.52-164.2,48.44,112.39Zm-56.85-181.95l-2.22,18.86-60.2-49.13,62.42,30.27Zm-101.8-36.59l84.98,69.35-85.59,27.91-19.62-98.14,20.23.88Zm-42.14,24.52l5.34-6.31,17.6,88.01-22.93,14.48V45.62Zm0,119.84l28.76-18.16,57.45,161.4-49.78,30-36.43-51.64v-121.6Zm0,156.3l21.32,30.22-21.32,27.24v-57.47Zm0,89.92l33.36-42.63,47.52,67.37-80.88-3.36v-21.38Zm63.54,70.13h-38.38l-17.04-28.4,73.68,3.06-18.25,25.34Zm-15.56-126.72l41.44-24.98.97,85.1-42.41-60.12Zm49.06-75.58l-50.46-141.76,89.52-29.19-39.06,170.95Zm24.3,145.35l-10.77,5.78-1.13-98.32,57.45,40.77-45.56,51.77Zm78.64-106.26l-42.82,23.06-39.91-28.32,93.37-56.28,13.08,13.07-23.72,48.47Z"/></g></svg>